<?xml version="1.0" encoding="UTF-8" standalone="no"?>
<svg
   xmlns:dc="http://purl.org/dc/elements/1.1/"
   xmlns:cc="http://creativecommons.org/ns#"
   xmlns:rdf="http://www.w3.org/1999/02/22-rdf-syntax-ns#"
   xmlns:svg="http://www.w3.org/2000/svg"
   xmlns="http://www.w3.org/2000/svg"
   xmlns:sodipodi="http://sodipodi.sourceforge.net/DTD/sodipodi-0.dtd"
   xmlns:inkscape="http://www.inkscape.org/namespaces/inkscape"
   id="svg8"
   version="1.1"
   viewBox="0 0 140.62392 46.6852"
   height="46.6852mm"
   width="140.62392mm"
   sodipodi:docname="handspy-text-green.svg"
   inkscape:export-filename="/home/josepaiva/Transferências/handspy-text-green.svg.png"
   inkscape:export-xdpi="96"
   inkscape:export-ydpi="96"
   inkscape:version="0.92.3 (2405546, 2018-03-11)">
  <sodipodi:namedview
     pagecolor="#ffffff"
     bordercolor="#666666"
     borderopacity="1"
     objecttolerance="10"
     gridtolerance="10"
     guidetolerance="10"
     inkscape:pageopacity="0"
     inkscape:pageshadow="2"
     inkscape:window-width="1498"
     inkscape:window-height="944"
     id="namedview8"
     showgrid="false"
     inkscape:zoom="0.82409524"
     inkscape:cx="329.8218"
     inkscape:cy="88.224"
     inkscape:window-x="41"
     inkscape:window-y="27"
     inkscape:window-maximized="0"
     inkscape:current-layer="text817" />
  <defs
     id="defs2" />
  <metadata
     id="metadata5">
    <rdf:RDF>
      <cc:Work
         rdf:about="">
        <dc:format>image/svg+xml</dc:format>
        <dc:type
           rdf:resource="http://purl.org/dc/dcmitype/StillImage" />
        <dc:title />
      </cc:Work>
    </rdf:RDF>
  </metadata>
  <g
     transform="translate(-40.089668,-108.62393)"
     id="layer1">
    <g
       aria-label="HandSpy"
       style="font-style:normal;font-weight:normal;font-size:10.58333302px;line-height:1.25;font-family:sans-serif;letter-spacing:0px;word-spacing:0px;fill:#000000;fill-opacity:1;stroke:none;stroke-width:0.26458332"
       id="text817">
      <path
         d="m 44.814068,142.71072 q 0,2.3368 -0.508,2.7432 -0.4572,0.3556 -3.1496,0.3556 h -1.0668 v -36.57599 h 1.0668 q 2.6924,0 3.1496,0.4064 0.508,0.3556 0.508,2.6924 v 10.26159 l -0.2032,1.27 h 8.382 l -0.1524,-1.27 v -13.36039 h 1.1176 q 2.6924,0 3.1496,0.4064 0.508,0.3556 0.508,2.6924 v 33.47719 h -1.016 q -2.794,0 -3.302,-0.3556 -0.4572,-0.4064 -0.4572,-2.7432 v -13.2588 l 0.4064,-1.0668 h -8.8392 l 0.4064,1.1684 z"
         style="font-style:normal;font-variant:normal;font-weight:bold;font-stretch:normal;font-size:50.79999924px;font-family:Economica;-inkscape-font-specification:'Economica Bold';fill:#6aa84f;fill-opacity:1;stroke-width:0.26458332"
         id="path10"
         inkscape:connector-curvature="0" />
      <path
         d="m 72.542929,124.82912 0.0508,-1.3716 q 0,-0.7112 -0.1524,-0.762 -0.1524,-0.0508 -0.3556,-0.2032 -0.2032,-0.2032 -0.5588,-0.1016 -0.3048,0.1016 -0.762,0.0508 l -2.7432,0.3556 q -1.0668,0.1524 -1.8288,0.1524 -0.762,0 -1.1684,-0.3556 -0.4064,-0.3556 -0.8128,-3.2512 l 5.8928,-1.1684 q 3.6068,0 4.5212,0.5588 0.9144,0.508 1.3208,0.8636 0.4064,0.3556 0.5588,1.4224 0.254,1.3208 0.254,4.1656 v 20.6248 q -2.9464,0 -3.7084,-0.3048 -0.762,-0.3048 -0.8128,-1.4732 l -4.2164,2.1336 q -1.4224,0 -2.1336,-0.0508 -0.6604,0 -1.3716,-0.4064 -0.6604,-0.4064 -0.9144,-0.8128 -0.2032,-0.4064 -0.4064,-1.7272 -0.254,-1.5748 -0.254,-6.4516 v -3.5052 q 0,-5.7404 10.0076,-5.9436 l -0.4064,-1.2192 z m -4.826,17.018 q 0.0508,0 5.1308,-1.9304 l -0.508,-1.4732 v -6.0452 l 0.4064,-1.1684 q -2.0828,0.0508 -3.6576,0.4064 -1.5748,0.3556 -1.5748,0.9652 l -0.0508,6.7056 q 0,2.54 0.254,2.54 z"
         style="font-style:normal;font-variant:normal;font-weight:bold;font-stretch:normal;font-size:50.79999924px;font-family:Economica;-inkscape-font-specification:'Economica Bold';fill:#6aa84f;fill-opacity:1;stroke-width:0.26458332"
         id="path12"
         inkscape:connector-curvature="0" />
      <path
         d="m 92.981196,132.24592 0.0508,-4.4704 q 0,-2.032 -0.1016,-3.048 -0.2032,-2.1336 -2.3876,-2.2352 l -4.6736,1.3716 0.4572,1.4224 v 20.5232 q -3.4036,0 -3.9624,-0.3556 -0.5588,-0.4064 -0.5588,-2.6924 v -24.2316 q 2.9464,0 3.7084,0.1524 0.762,0.1524 0.8128,0.9144 l 3.7592,-1.4224 q 3.0988,0 4.064,0.4064 0.9652,0.4064 1.4732,0.7112 0.508,0.3048 0.9144,1.27 0.4064,0.9144 0.5588,1.7272 0.1524,0.762 0.3048,2.4892 0.1524,2.4892 0.1524,7.5184 v 13.5128 q -3.4036,0 -4.0132,-0.3556 -0.5588,-0.4064 -0.5588,-2.6924 z"
         style="font-style:normal;font-variant:normal;font-weight:bold;font-stretch:normal;font-size:50.79999924px;font-family:Economica;-inkscape-font-specification:'Economica Bold';fill:#6aa84f;fill-opacity:1;stroke-width:0.26458332"
         id="path14"
         inkscape:connector-curvature="0" />
      <path
         d="m 102.38237,137.68152 q -0.0508,-1.6764 -0.0508,-5.4356 0,-3.7592 0.0508,-5.4356 0.1016,-1.6764 0.4572,-3.7592 0.4064,-2.1336 1.27,-2.9464 2.032,-1.9304 6.2484,-1.9304 l 2.8448,1.016 v -9.95679 q 3.4036,0 3.9624,0.4064 0.5588,0.3556 0.5588,2.6924 v 33.47719 q -3.048,0 -3.7592,-0.254 -0.7112,-0.254 -0.762,-1.4732 l -3.0988,2.0828 q -4.0132,0 -6.096,-1.8796 -1.3716,-1.27 -1.6256,-6.604 z m 11.3284,2.4892 -0.508,-1.6256 v -13.6144 l 0.4572,-1.4224 -3.9624,-1.016 q -1.9304,0.1524 -2.3876,2.1336 -0.4572,1.9812 -0.4572,7.874 0,5.8928 0.4572,7.4168 0.5588,1.8796 2.4384,1.9304 z"
         style="font-style:normal;font-variant:normal;font-weight:bold;font-stretch:normal;font-size:50.79999924px;font-family:Economica;-inkscape-font-specification:'Economica Bold';fill:#6aa84f;fill-opacity:1;stroke-width:0.26458332"
         id="path16"
         inkscape:connector-curvature="0" />
      <path
         d="m 122.51663,140.78032 q 5.08,0.508 7.4168,0.508 2.3368,0 3.2004,-0.3556 0.9144,-0.3556 1.3716,-0.8128 0.4572,-0.508 0.6604,-1.4732 0.254,-1.2192 0.254,-2.9972 0,-1.778 -0.8636,-3.0988 -0.8636,-1.3208 -1.6256,-1.9812 -0.7112,-0.6604 -2.6416,-2.3368 -1.9304,-1.6764 -2.7432,-2.3876 -0.762,-0.762 -2.1844,-2.3368 -2.5908,-2.8448 -2.5908,-5.9436 0,-5.38479 1.1176,-6.60399 1.7272,-1.778 3.7084,-2.032 1.9812,-0.3048 4.2164,-0.3048 l 6.9088,1.4732 q -0.4064,2.8956 -1.1684,3.4036 -0.3556,0.3048 -1.27,0.3048 -0.8636,0 -2.286,-0.3048 l -1.9304,-0.3556 q -2.9972,0 -3.6576,1.2192 -0.4064,0.66039 -0.508,1.21919 -0.0508,0.5588 -0.0508,1.6764 0,2.0828 5.1308,6.4008 2.4384,1.9304 3.81,3.2512 1.3716,1.3208 2.5908,3.2004 1.2192,1.8796 1.2192,3.556 0,1.6764 -0.0508,2.5908 0,0.8636 -0.2032,2.4384 -0.1524,1.524 -0.508,2.3876 -0.3556,0.8636 -1.0668,1.9812 -0.7112,1.1176 -1.7272,1.6764 -2.5908,1.4224 -6.1976,1.4224 -2.032,0 -4.7244,-0.4572 -2.6924,-0.508 -3.6068,-0.6096 z"
         style="font-style:normal;font-variant:normal;font-weight:bold;font-stretch:normal;font-size:50.79999924px;font-family:Economica;-inkscape-font-specification:'Economica Bold';fill:#6aa84f;fill-opacity:1;stroke-width:0.26458332"
         id="path18"
         inkscape:connector-curvature="0" />
      <path
         d="m 145.65842,152.26112 v -33.7312 q 3.302,0 3.8608,0.1524 0.5588,0.1524 0.5588,1.016 l 3.7084,-1.524 q 1.8796,0 4.0132,0.6096 0.762,0.254 1.3208,0.9144 0.6096,0.6604 0.9652,1.1684 0.4064,0.4572 0.6604,1.6256 0.254,1.1176 0.3556,1.8288 0.1524,0.7112 0.2032,2.3368 0.1016,1.6256 0.1016,2.5908 v 3.048 q 0,7.3152 -0.3048,8.4836 -0.3048,1.1176 -0.7112,2.1844 -0.3556,1.0668 -0.9144,1.524 -0.508,0.4064 -1.3208,0.9144 -1.3716,0.762 -4.4704,0.762 l -3.556,-1.778 v 10.922 q -3.3528,0 -3.9116,-0.4064 -0.5588,-0.3556 -0.5588,-2.6416 z m 8.2296,-10.414 q 2.032,-0.0508 2.4892,-1.9304 0.4572,-1.8796 0.4572,-7.4676 0,-5.6388 -0.4572,-7.7216 -0.4572,-2.0828 -2.3876,-2.2352 l -4.2672,0.9652 0.4572,1.3716 v 13.716 l -0.5588,1.5748 z"
         style="font-style:normal;font-variant:normal;font-weight:bold;font-stretch:normal;font-size:50.79999924px;font-family:Economica;-inkscape-font-specification:'Economica Bold';fill:#6aa84f;fill-opacity:1;stroke-width:0.26458332"
         id="path20"
         inkscape:connector-curvature="0" />
      <path
         d="m 165.67679,155.30912 v -3.6576 q 1.9812,0 3.3528,-1.27 1.4224,-1.2192 1.4224,-2.8448 0,-0.4064 -0.0508,-0.6604 l -5.7404,-28.3464 h 1.9812 q 1.524,0 1.9304,0.254 0.4064,0.2032 0.6604,0.6096 0.3048,0.4064 0.3556,0.8128 0.0508,0.3556 0.2032,1.2192 l 2.8956,18.288 h 0.762 l 3.0988,-21.1836 q 2.6924,0 3.4036,0.254 0.762,0.2032 0.762,1.3716 l -5.3848,26.4668 q -0.762,4.064 -1.6764,5.3848 -1.27,1.778 -2.4384,2.286 -2.6416,1.016 -5.5372,1.016 z"
         style="font-style:normal;font-variant:normal;font-weight:bold;font-stretch:normal;font-size:50.79999924px;font-family:Economica;-inkscape-font-specification:'Economica Bold';fill:#6aa84f;fill-opacity:1;stroke-width:0.26458332"
         id="path22"
         inkscape:connector-curvature="0" />
    </g>
  </g>
</svg>
